# Blender 4.1.0 Alpha
# www.blender.org
mtllib bullet.mtl
o Cone
v 2.500000 0.000000 -0.000000
v 1.500000 1.000000 -0.000000
v 1.500000 0.000000 1.000000
v 1.500000 -1.000000 -0.000000
v 1.500000 0.000000 -1.000000
v -1.992478 -0.000000 0.000000
vn 0.5774 0.5774 0.5774
vn -0.1984 0.6930 0.6930
vn 0.5774 -0.5774 0.5774
vn -0.1984 -0.6930 0.6930
vn 0.5774 -0.5774 -0.5774
vn -0.1984 -0.6930 -0.6930
vn 0.5774 0.5774 -0.5774
vn -0.1984 0.6930 -0.6930
vt 0.750000 0.250000
vt 0.750000 0.490000
vt 0.990000 0.250000
vt 0.250000 0.490000
vt 0.250000 0.250000
vt 0.490000 0.250000
vt 0.750000 0.010000
vt 0.250000 0.010000
vt 0.510000 0.250000
vt 0.010000 0.250000
s 0
f 1/1/1 2/2/1 3/3/1
f 2/4/2 6/5/2 3/6/2
f 1/1/3 3/3/3 4/7/3
f 3/6/4 6/5/4 4/8/4
f 1/1/5 4/7/5 5/9/5
f 4/8/6 6/5/6 5/10/6
f 1/1/7 5/9/7 2/2/7
f 5/10/8 6/5/8 2/4/8
